{"title":"Ghost Hunters - S06E26 - Ghost of Christmas Past.[tNe.XViD].avi","uid":6027332,"size":367002546,"categoryP":"video","categoryS":"tv_shows","magnet":"?xt=urn:btih:94899648b9909b1b6d9b1bf73ef8bc858af37eb7&amp;dn=Ghost+Hunters+-+S06E26+-+Ghost+of+Christmas+Past.%5BtNe.XViD%5D.avi&amp;tr=udp%3A%2F%2Ftracker.openbittorrent.com%3A80&amp;tr=udp%3A%2F%2Fopen.demonii.com%3A1337&amp;tr=udp%3A%2F%2Ftracker.coppersurfer.tk%3A6969&amp;tr=udp%3A%2F%2Fexodus.desync.com%3A6969","seeders":1,"leechers":0,"uploader":"trialNerror","files":1,"time":1291966510,"description":" &lt;a href=&quot;http://www.tv.com/ghost-hunters/ghost-of-christmas-past/episode/1365145/summary.html?tag=search_results;summary&quot; rel=&quot;nofollow&quot; target=&quot;_NEW&quot;&gt;http://www.tv.com/ghost-hunters/ghost-of-christmas-past/episode/1365145/summary.html?tag=search_results;summary&lt;/a&gt;\n\n\nFormat                           : AVI\nFormat/Info                      : Audio Video Interleave\nFile size                        : 350 MiB\nDuration                         : 43mn 38s\nOverall bit rate                 : 1 121 Kbps\nWriting application              : Lavf51.13.4\nWriting library                  : VirtualDub build 32839/release\n\nVideo\nID                               : 0\nFormat                           : MPEG-4 Visual\nFormat profile                   : Advanced Simple@L5\nFormat settings, BVOP            : Yes\nFormat settings, QPel            : No\nFormat settings, GMC             : No warppoints\nFormat settings, Matrix          : Default (H.263)\nCodec ID                         : XVID\nCodec ID/Hint                    : XviD\nDuration                         : 43mn 38s\nBit rate                         : 998 Kbps\nWidth                            : 624 pixels\nHeight                           : 352 pixels\nDisplay aspect ratio             : 16:9\nFrame rate                       : 29.970 fps\nColor space                      : YUV\nChroma subsampling               : 4:2:0\nBit depth                        : 8 bits\nScan type                        : Progressive\nBits/(Pixel*Frame)               : 0.152\nStream size                      : 312 MiB (89%)\nWriting library                  : XviD 1.2.1 (UTC 2008-12-04)\n\nAudio\nID                               : 1\nFormat                           : MPEG Audio\nFormat version                   : Version 1\nFormat profile                   : Layer 3\nMode                             : Joint stereo\nCodec ID                         : 55\nCodec ID/Hint                    : MP3\nDuration                         : 43mn 37s\nBit rate mode                    : Variable\nBit rate                         : 128 Kbps\nChannel(s)                       : 2 channels\nSampling rate                    : 48.0 KHz\nStream size                      : 34.2 MiB (10%)\nAlignment                        : Aligned on interleaves\nInterleave, duration             : 24 ms (0.72 video frame)\nInterleave, preload duration     : 571 ms\nWriting library                  : LAME3.98r\nEncoding settings                : -m j -V 5 -q 0 -lowpass 16.5 --vbr-new -b 64","torrent":{"xt":"urn:btih:94899648b9909b1b6d9b1bf73ef8bc858af37eb7","amp;dn":"Ghost+Hunters+-+S06E26+-+Ghost+of+Christmas+Past.%5BtNe.XViD%5D.avi","amp;tr":["udp%3A%2F%2Ftracker.openbittorrent.com%3A80","udp%3A%2F%2Fopen.demonii.com%3A1337","udp%3A%2F%2Ftracker.coppersurfer.tk%3A6969","udp%3A%2F%2Fexodus.desync.com%3A6969"],"infoHash":"94899648b9909b1b6d9b1bf73ef8bc858af37eb7","infoHashBuffer":{"type":"Buffer","data":[148,137,150,72,185,144,155,27,109,155,27,247,62,248,188,133,138,243,126,183]},"announce":[],"urlList":[]}}